<svg width="32" height="32" viewBox="0 0 32 32" fill="none" xmlns="http://www.w3.org/2000/svg">
  <rect width="32" height="32" rx="6" fill="#FFFFFF"/>
  <path
    d="M9 12.2C9 11.1 9.9 10.2 11 10.2H12.5L13.3 8.9C13.7 8.3 14.3 8 15 8H17.8C18.5 8 19.1 8.3 19.5 8.9L20.3 10.2H21C22.1 10.2 23 11.1 23 12.2V21.1C23 22.2 22.1 23.1 21 23.1H11C9.9 23.1 9 22.2 9 21.1V12.2Z"
    fill="#FFC800"
  />
  <circle cx="16" cy="16.2" r="5.7" fill="#FFFFFF"/>
  <path d="M20.8 9.1L24.4 12.7L22.5 14.6L18.9 11L20.8 9.1Z" fill="#FFFFFF"/>
</svg>
